<svg width="20" height="20" viewBox="0 0 20 20" fill="none" xmlns="http://www.w3.org/2000/svg">
<g id="u:users-alt">
<path id="Vector" d="M10.25 10.1833C10.6946 9.79843 11.0513 9.32239 11.2957 8.78751C11.5401 8.25262 11.6667 7.67141 11.6666 7.08332C11.6666 5.97825 11.2277 4.91845 10.4463 4.13705C9.66486 3.35564 8.60505 2.91666 7.49998 2.91666C6.39491 2.91666 5.3351 3.35564 4.5537 4.13705C3.7723 4.91845 3.33331 5.97825 3.33331 7.08332C3.33331 7.67141 3.45981 8.25262 3.70425 8.78751C3.94869 9.32239 4.30533 9.79843 4.74998 10.1833C3.58343 10.7116 2.5937 11.5646 1.89913 12.6404C1.20456 13.7163 0.83454 14.9694 0.833313 16.25C0.833313 16.471 0.92111 16.683 1.07739 16.8392C1.23367 16.9955 1.44563 17.0833 1.66665 17.0833C1.88766 17.0833 2.09962 16.9955 2.2559 16.8392C2.41218 16.683 2.49998 16.471 2.49998 16.25C2.49998 14.9239 3.02676 13.6521 3.96445 12.7145C4.90213 11.7768 6.1739 11.25 7.49998 11.25C8.82606 11.25 10.0978 11.7768 11.0355 12.7145C11.9732 13.6521 12.5 14.9239 12.5 16.25C12.5 16.471 12.5878 16.683 12.7441 16.8392C12.9003 16.9955 13.1123 17.0833 13.3333 17.0833C13.5543 17.0833 13.7663 16.9955 13.9226 16.8392C14.0788 16.683 14.1666 16.471 14.1666 16.25C14.1654 14.9694 13.7954 13.7163 13.1008 12.6404C12.4063 11.5646 11.4165 10.7116 10.25 10.1833ZM7.49998 9.58332C7.00553 9.58332 6.52218 9.4367 6.11105 9.162C5.69993 8.88729 5.3795 8.49685 5.19028 8.04003C5.00106 7.58322 4.95155 7.08055 5.04802 6.5956C5.14448 6.11065 5.38258 5.66519 5.73221 5.31556C6.08184 4.96593 6.5273 4.72782 7.01225 4.63136C7.49721 4.5349 7.99987 4.58441 8.45669 4.77362C8.9135 4.96284 9.30395 5.28327 9.57865 5.6944C9.85336 6.10552 9.99998 6.58887 9.99998 7.08332C9.99998 7.74636 9.73659 8.38225 9.26775 8.85109C8.79891 9.31993 8.16302 9.58332 7.49998 9.58332ZM15.6166 9.84999C16.15 9.24943 16.4983 8.50754 16.6198 7.71361C16.7413 6.91968 16.6308 6.10755 16.3015 5.37499C15.9721 4.64243 15.4381 4.02065 14.7637 3.58451C14.0893 3.14836 13.3032 2.91644 12.5 2.91666C12.279 2.91666 12.067 3.00445 11.9107 3.16073C11.7544 3.31701 11.6666 3.52898 11.6666 3.74999C11.6666 3.971 11.7544 4.18297 11.9107 4.33925C12.067 4.49553 12.279 4.58332 12.5 4.58332C13.163 4.58332 13.7989 4.84672 14.2677 5.31556C14.7366 5.7844 15 6.42028 15 7.08332C14.9988 7.52102 14.8827 7.95074 14.6634 8.32951C14.444 8.70827 14.129 9.02281 13.75 9.24166C13.6264 9.31292 13.5232 9.41471 13.4503 9.53727C13.3773 9.65984 13.3371 9.79907 13.3333 9.94166C13.3298 10.0831 13.3624 10.2232 13.428 10.3485C13.4936 10.4739 13.5901 10.5805 13.7083 10.6583L14.0333 10.875L14.1416 10.9333C15.1461 11.4098 15.9936 12.1633 16.5841 13.1053C17.1747 14.0472 17.4838 15.1383 17.475 16.25C17.475 16.471 17.5628 16.683 17.7191 16.8392C17.8753 16.9955 18.0873 17.0833 18.3083 17.0833C18.5293 17.0833 18.7413 16.9955 18.8976 16.8392C19.0538 16.683 19.1416 16.471 19.1416 16.25C19.1485 14.9712 18.8282 13.7119 18.2112 12.5917C17.5942 11.4715 16.7011 10.5278 15.6166 9.84999Z" fill="black"/>
</g>
</svg>
